<svg width="63" height="12" viewBox="0 0 63 12" fill="none" xmlns="http://www.w3.org/2000/svg">
<path d="M4.56 9V8.208C4.14 8.808 3.504 9.12 2.628 9.12C1.296 9.12 0.408 8.34 0.408 7.14C0.408 5.892 1.416 5.22 3.288 5.22C3.648 5.22 3.96 5.244 4.356 5.292V4.908C4.356 4.188 3.948 3.768 3.252 3.768C2.532 3.768 2.1 4.188 2.04 4.908H0.54C0.636 3.432 1.704 2.472 3.252 2.472C4.932 2.472 5.916 3.396 5.916 4.968V9H4.56ZM1.98 7.092C1.98 7.632 2.364 7.968 2.988 7.968C3.84 7.968 4.356 7.5 4.356 6.756V6.3C3.96 6.24 3.684 6.216 3.396 6.216C2.448 6.216 1.98 6.516 1.98 7.092ZM9.03338 9H7.35338V0.383999H9.03338V9ZM14.3452 9V8.208C13.9252 8.808 13.2892 9.12 12.4132 9.12C11.0812 9.12 10.1932 8.34 10.1932 7.14C10.1932 5.892 11.2012 5.22 13.0732 5.22C13.4332 5.22 13.7452 5.244 14.1412 5.292V4.908C14.1412 4.188 13.7332 3.768 13.0372 3.768C12.3172 3.768 11.8852 4.188 11.8252 4.908H10.3252C10.4212 3.432 11.4892 2.472 13.0372 2.472C14.7172 2.472 15.7012 3.396 15.7012 4.968V9H14.3452ZM11.7652 7.092C11.7652 7.632 12.1492 7.968 12.7732 7.968C13.6252 7.968 14.1412 7.5 14.1412 6.756V6.3C13.7452 6.24 13.4692 6.216 13.1812 6.216C12.2332 6.216 11.7652 6.516 11.7652 7.092ZM18.8065 5.508V9H17.1385V2.592H18.6745V3.504C19.1425 2.868 19.8025 2.472 20.6425 2.472C21.9265 2.472 22.8145 3.312 22.8145 4.86V9H21.1585V5.424C21.1585 4.476 20.7865 3.948 20.0305 3.948C19.3705 3.948 18.8065 4.476 18.8065 5.508ZM29.4596 9.12C27.7196 9.12 26.4596 7.74 26.4596 5.832C26.4596 3.936 27.7196 2.568 29.4596 2.568C31.2116 2.568 32.4716 3.936 32.4716 5.832C32.4716 7.74 31.2116 9.12 29.4596 9.12ZM29.4596 8.388C30.6956 8.388 31.6196 7.404 31.6196 5.832C31.6196 4.284 30.6956 3.3 29.4596 3.3C28.2356 3.3 27.3116 4.284 27.3116 5.832C27.3116 7.404 28.2356 8.388 29.4596 8.388ZM39.626 5.832C39.626 7.776 38.534 9.12 36.842 9.12C35.87 9.12 35.054 8.592 34.61 7.668V9H33.83V0.383999H34.67V4.008C35.078 3.084 35.882 2.556 36.842 2.556C38.534 2.556 39.626 3.888 39.626 5.832ZM38.774 5.832C38.774 4.224 37.946 3.288 36.71 3.288C35.522 3.288 34.658 4.212 34.658 5.808C34.658 7.392 35.498 8.388 36.71 8.388C37.946 8.388 38.774 7.44 38.774 5.832ZM43.4624 9.12C41.6864 9.12 40.5104 7.788 40.5104 5.784C40.5104 3.936 41.7344 2.556 43.4144 2.556C45.2144 2.556 46.3904 4.008 46.2464 6.036H41.3504C41.4224 7.536 42.2144 8.46 43.4504 8.46C44.5064 8.46 45.2384 7.872 45.4424 6.864H46.2704C45.9824 8.268 44.9144 9.12 43.4624 9.12ZM43.4024 3.204C42.2624 3.204 41.4584 4.08 41.3504 5.46H45.3704C45.2984 4.044 44.5664 3.204 43.4024 3.204ZM48.4747 5.316V9H47.6347V2.676H48.4147V3.864C48.8227 3.084 49.5907 2.556 50.5027 2.556C51.8227 2.556 52.6747 3.396 52.6747 4.896V9H51.8347V5.184C51.8347 3.972 51.2827 3.288 50.2507 3.288C49.2667 3.288 48.4747 4.14 48.4747 5.316ZM56.8313 11.448C55.2233 11.448 54.2153 10.608 54.1433 9.192H54.9473C55.0193 10.224 55.6913 10.776 56.8193 10.776C58.0673 10.776 58.7273 10.116 58.7273 8.868V7.548C58.3433 8.436 57.5753 8.952 56.6393 8.952C55.0433 8.952 53.9753 7.668 53.9753 5.748C53.9753 3.828 55.0312 2.556 56.6273 2.556C57.5753 2.556 58.3673 3.096 58.7753 4.02V2.676H59.5553V8.856C59.5553 10.488 58.5593 11.448 56.8313 11.448ZM54.8153 5.748C54.8153 7.296 55.5473 8.232 56.7593 8.232C57.9473 8.232 58.7393 7.272 58.7393 5.808C58.7393 4.26 57.9593 3.276 56.7593 3.276C55.5593 3.276 54.8153 4.212 54.8153 5.748Z" fill="white"/>
<path d="M62.7728 8.304C62.7728 8.736 62.4608 9.06 62.0168 9.06C61.5848 9.06 61.2607 8.736 61.2607 8.304C61.2607 7.848 61.5848 7.536 62.0168 7.536C62.4608 7.536 62.7728 7.848 62.7728 8.304Z" fill="#C92626"/>
</svg>
